Coordinates
version=1
nRows=12
nColumns=24
inDegrees=yes

Units are S.I. units (second, meters, Newtons, ...)
Angles are in degrees.

endheader
time	pelvis_tilt	pelvis_list	pelvis_rotation	pelvis_tx	pelvis_ty	pelvis_tz	hip_flexion_r	hip_adduction_r	hip_rotation_r	knee_angle_r	ankle_angle_r	subtalar_angle_r	mtp_angle_r	hip_flexion_l	hip_adduction_l	hip_rotation_l	knee_angle_l	ankle_angle_l	subtalar_angle_l	mtp_angle_l	lumbar_extension	lumbar_bending	lumbar_rotation
      1.45500000	     19.54200326	     -9.21807718	      4.28033878	      0.20793616	      0.97384728	      0.03240820	    -18.15910217	     14.01586421	     -8.73582788	     -4.82030962	      6.93586009	      3.05022640	      6.39685966	     -4.26184741	    -14.56402633	     -4.81397429	    -62.94364298	      4.06250794	     -3.26617074	     24.71799598	    -26.28912834	      9.60228095	     -0.56381731
      1.46000000	     19.47688874	     -9.07767521	      4.28941545	      0.21280227	      0.97403998	      0.03262356	    -18.58956758	     13.91687862	     -8.58015488	     -4.50771972	      7.08000432	      3.08332212	      6.41491265	     -3.48272769	    -14.32827308	     -4.72108216	    -62.59262710	      5.07990845	     -3.40735121	     24.79656728	    -26.28389971	      9.45382974	     -0.58026335
      1.46500000	     19.39553629	     -8.92206699	      4.32138343	      0.21773226	      0.97420136	      0.03280251	    -19.00202624	     13.81237348	     -8.50038473	     -4.19647406	      7.20544115	      2.99880426	      6.42333473	     -2.71545684	    -14.07137091	     -4.60379030	    -62.14229065	      6.13405263	     -3.29388769	     24.83599194	    -26.24785108	      9.29960229	     -0.61866353
      1.47000000	     19.30925733	     -8.82775048	      4.30043698	      0.22262395	      0.97430613	      0.03308000	    -19.43288849	     13.75656800	     -8.21645227	     -3.84129532	      7.28849218	      2.83733441	      6.44441834	     -1.96937269	    -13.88415708	     -4.56278560	    -61.64174253	      7.24582338	     -3.03917821	     24.14060330	    -26.21816265	      9.18355122	     -0.56768032
      1.47500000	     19.26571538	     -8.65370223	      4.30563161	      0.22757243	      0.97449272	      0.03324383	    -19.89926556	     13.61747436	     -8.14874749	     -3.51653097	      7.40168595	      2.87995094	      6.46116932	     -1.31961624	    -13.58639543	     -4.49962027	    -60.99543126	      8.16303860	     -2.95152146	     24.22455833	    -26.22599689	      9.00124185	     -0.58527669
      1.48000000	     19.25479100	     -8.49369937	      4.29305276	      0.23251306	      0.97468458	      0.03343774	    -20.41918741	     13.48798006	     -8.00425323	     -3.16053254	      7.51556513	      2.91952751	      6.47771416	     -0.74166873	    -13.30495908	     -4.46447985	    -60.26343765	      9.04541496	     -2.72069901	     24.28604904	    -26.27209506	      8.82528901	     -0.55266979
      1.48500000	     19.22561696	     -8.32940898	      4.25763794	      0.23747908	      0.97484103	      0.03366316	    -20.91159193	     13.34625166	     -7.88186574	     -2.82515998	      7.61760170	      2.92221253	      6.49076096	     -0.18410376	    -13.02022494	     -4.48172269	    -59.43951647	      9.86718367	     -2.51274571	     24.34580295	    -26.29907358	      8.63480978	     -0.52101236
      1.49000000	     19.22025274	     -8.16446472	      4.21251802	      0.24244400	      0.97500348	      0.03390118	    -21.44075997	     13.20060144	     -7.73516128	     -2.46949664	      7.70924855	      2.93548289	      6.50447356	      0.31095984	    -12.73418770	     -4.51855329	    -58.52593910	     10.63049892	     -2.24484158	     24.39708412	    -26.35383139	      8.43798595	     -0.46672771
      1.49500000	     19.25712611	     -7.99924492	      4.15533107	      0.24739577	      0.97519211	      0.03413160	    -22.02738756	     13.04824222	     -7.55003260	     -2.09282502	      7.79225694	      2.96933553	      6.52333368	      0.71896809	    -12.44533470	     -4.57929006	    -57.51778148	     11.32482409	     -1.94424206	     24.41834757	    -26.45756457	      8.23935297	     -0.37670282
      1.50000000	     19.28535180	     -7.82698830	      4.07719061	      0.25240524	      0.97536702	      0.03440811	    -22.60523288	     12.88219139	     -7.39604481	     -1.72274576	      7.86232170	      3.00775152	      6.54801238	      1.08806779	    -12.15842947	     -4.70161072	    -56.41104566	     11.95103908	     -1.68406701	     24.41124540	    -26.54775382	      8.02081105	     -0.29912582
      1.50500000	     19.26747101	     -7.64197932	      4.00467733	      0.25739397	      0.97544173	      0.03466608	    -23.10633762	     12.70368456	     -7.29865136	     -1.39958913	      7.96841751	      3.01253265	      6.57092520	      1.48995709	    -11.84698839	     -4.80142573	    -55.23660276	     12.48740251	     -1.40568950	     24.44359935	    -26.58826897	      7.79107229	     -0.23742329
      1.51000000	     19.32667252	     -7.45237145	      3.90811961	      0.26239181	      0.97560304	      0.03495497	    -23.70843621	     12.51150305	     -7.16472593	     -1.04780861	      8.04881845	      3.05822712	      6.59760755	      1.74709184	    -11.54419759	     -4.97338852	    -53.94751851	     12.96162107	     -1.11726344	     24.46225954	    -26.71469002	      7.54475199	     -0.13419613
